<svg viewBox="0 0 15 16" fill="none" xmlns="http://www.w3.org/2000/svg">
    <path d="M13.9625 15.2875C14.1903 15.5153 14.5597 15.5153 14.7875 15.2875C15.0153 15.0597 15.0153 14.6903 14.7875 14.4625L13.9625 15.2875ZM11.3652 6.78676C11.3652 9.59151 9.09151 11.8652 6.28676 11.8652V13.0319C9.73584 13.0319 12.5319 10.2358 12.5319 6.78676H11.3652ZM6.28676 11.8652C3.48202 11.8652 1.20833 9.59151 1.20833 6.78676H0.0416666C0.0416666 10.2358 2.83769 13.0319 6.28676 13.0319V11.8652ZM1.20833 6.78676C1.20833 3.98202 3.48202 1.70833 6.28676 1.70833V0.541667C2.83769 0.541667 0.0416666 3.33769 0.0416666 6.78676H1.20833ZM6.28676 1.70833C9.09151 1.70833 11.3652 3.98202 11.3652 6.78676H12.5319C12.5319 3.33769 9.73584 0.541667 6.28676 0.541667V1.70833ZM9.9184 11.2434L13.9625 15.2875L14.7875 14.4625L10.7434 10.4184L9.9184 11.2434Z"
          fill="#b3b3b3"/>
</svg>
